<svg width="140" height="187" viewBox="0 0 140 187" fill="none" xmlns="http://www.w3.org/2000/svg">
<path d="M97.47 164.19C97.46 170.17 94.57 175.51 90.1 178.84C91.68 175.75 91.95 172.12 90.82 168.79L86.15 152.22V152.19C85.61 150.16 84.49 146.21 83.46 142.51L92.14 151.22C95.55 154.63 97.5 159.35 97.47 164.19Z" fill="#00A4E4"/>
<path d="M139.33 185.67C139.33 186.14 138.95 186.52 138.47 186.52H91.9099C103.61 182.1 112.45 171.76 114.77 159.14L117.37 168.36C120.28 177.71 128.69 184.28 138.46 184.83C138.93 184.84 139.32 185.21 139.33 185.67Z" fill="#00A4E4"/>
<path d="M105.61 126.66L68.43 89.3803L59.46 57.6103V57.6003L55.97 45.2503C55.94 45.1003 55.94 44.9403 55.97 44.7803L58.43 36.0503L58.67 35.2103L60.2 29.8003L60.43 28.9903L68.43 0.620278C68.53 0.250278 68.88 0.000278803 69.25 0.000278803C69.64 -0.0097212 69.97 0.250278 70.07 0.620278L105.61 126.66Z" fill="#00A4E4"/>
<path d="M103.73 128.9C109.88 135.25 113.32 143.75 113.3 152.59V152.68C113.28 171.5 98.03 186.76 79.2 186.78C78.81 186.78 78.49 186.46 78.49 186.07C78.49 185.88 78.56 185.7 78.7 185.57C78.84 185.44 79.01 185.36 79.2 185.36C79.56 185.36 79.93 185.34 80.29 185.33C91.54 184.74 100.36 175.46 100.38 164.2C100.41 158.56 98.17 153.15 94.18 149.17L34.75 89.5803C28.6 83.2303 25.16 74.7303 25.18 65.8903V65.8003C25.2 46.9803 40.46 31.7303 59.28 31.7003C59.67 31.7003 59.99 32.0203 59.99 32.4103C59.99 32.8003 59.67 33.1203 59.28 33.1203C58.92 33.1203 58.55 33.1403 58.19 33.1503C46.94 33.7403 38.12 43.0203 38.1 54.2803C38.07 59.9203 40.31 65.3303 44.3 69.3103L103.73 128.9Z" fill="#00A4E4"/>
<path d="M113.31 65.7903C113.31 65.9803 113.24 66.1603 113.1 66.2903C112.97 66.4203 112.79 66.5003 112.6 66.5003C112.21 66.5003 111.89 66.1803 111.89 65.7903C111.87 47.7503 97.25 33.1403 79.22 33.1203C79.03 33.1203 78.85 33.0403 78.72 32.9103C78.59 32.7803 78.51 32.5903 78.51 32.4103C78.51 32.0203 78.83 31.7003 79.22 31.7003H112.6C112.79 31.7003 112.97 31.7703 113.11 31.9103C113.24 32.0403 113.32 32.2303 113.32 32.4203V65.7903H113.31Z" fill="#00A4E4"/>
<path d="M59.27 185.8C59.27 186.2 58.94 186.53 58.54 186.53H0.729996C0.329996 186.53 0 186.2 0 185.8V185.51C0 185.12 0.289993 184.81 0.679993 184.78C3.83999 184.54 17.3 181.86 25.17 153.94L40.58 99.5503L46.63 105.61L33.59 153.94C33.59 153.94 26.74 183.26 58.59 185.07C58.96 185.1 59.27 185.41 59.27 185.8Z" fill="#00A4E4"/>
<path d="M59.47 57.9903L54.71 75.6403L48.98 69.9003L55.97 45.2503L59.46 57.6003V57.6103C59.49 57.7403 59.49 57.8603 59.47 57.9903Z" fill="#00A4E4"/>
</svg>
