<?xml version="1.0" encoding="utf-8"?>
<!-- Generator: Adobe Illustrator 27.8.1, SVG Export Plug-In . SVG Version: 6.00 Build 0)  -->
<svg version="1.1" id="Layer_1" xmlns="http://www.w3.org/2000/svg" xmlns:xlink="http://www.w3.org/1999/xlink" x="0px" y="0px"
	 viewBox="0 0 595.28 280.63" style="enable-background:new 0 0 595.28 280.63;" xml:space="preserve">
<style type="text/css">
	.st0{fill:#EE7A22;}
</style>
<g>
	<path class="st0" d="M325.44,211.12c-0.01,5.98-2.9,11.32-7.37,14.65c1.58-3.09,1.85-6.72,0.72-10.05l-4.67-16.57v-0.03
		c-0.54-2.03-1.66-5.98-2.69-9.68l8.68,8.71C323.52,201.56,325.47,206.28,325.44,211.12z"/>
	<path class="st0" d="M367.3,232.6c0,0.47-0.38,0.85-0.86,0.85h-46.56c11.7-4.42,20.54-14.76,22.86-27.38l2.6,9.22
		c2.91,9.35,11.32,15.92,21.09,16.47C366.9,231.77,367.29,232.14,367.3,232.6z"/>
	<path class="st0" d="M333.58,173.59l-37.18-37.28l-8.97-31.77v-0.01l-3.49-12.35c-0.03-0.15-0.03-0.31,0-0.47l2.46-8.73l0.24-0.84
		l1.53-5.41l0.23-0.81l8-28.37c0.1-0.37,0.45-0.62,0.82-0.62c0.39-0.01,0.72,0.25,0.82,0.62L333.58,173.59z"/>
	<path class="st0" d="M331.7,175.83c6.15,6.35,9.59,14.85,9.57,23.69v0.09c-0.02,18.82-15.27,34.08-34.1,34.1
		c-0.39,0-0.71-0.32-0.71-0.71c0-0.19,0.07-0.37,0.21-0.5s0.31-0.21,0.5-0.21c0.36,0,0.73-0.02,1.09-0.03
		c11.25-0.59,20.07-9.87,20.09-21.13c0.03-5.64-2.21-11.05-6.2-15.03l-59.43-59.59c-6.15-6.35-9.59-14.85-9.57-23.69v-0.09
		c0.02-18.82,15.28-34.07,34.1-34.1c0.39,0,0.71,0.32,0.71,0.71c0,0.39-0.32,0.71-0.71,0.71c-0.36,0-0.73,0.02-1.09,0.03
		c-11.25,0.59-20.07,9.87-20.09,21.13c-0.03,5.64,2.21,11.05,6.2,15.03L331.7,175.83z"/>
	<path class="st0" d="M341.28,112.72c0,0.19-0.07,0.37-0.21,0.5c-0.13,0.13-0.31,0.21-0.5,0.21c-0.39,0-0.71-0.32-0.71-0.71
		c-0.02-18.04-14.64-32.65-32.67-32.67c-0.19,0-0.37-0.08-0.5-0.21s-0.21-0.32-0.21-0.5c0-0.39,0.32-0.71,0.71-0.71h33.38
		c0.19,0,0.37,0.07,0.51,0.21c0.13,0.13,0.21,0.32,0.21,0.51V112.72z"/>
	<path class="st0" d="M287.24,232.73c0,0.4-0.33,0.73-0.73,0.73h-57.81c-0.4,0-0.73-0.33-0.73-0.73v-0.29c0-0.39,0.29-0.7,0.68-0.73
		c3.16-0.24,16.62-2.92,24.49-30.84l15.41-54.39l6.05,6.06l-13.04,48.33c0,0-6.85,29.32,25,31.13
		C286.93,232.03,287.24,232.34,287.24,232.73z"/>
	<path class="st0" d="M287.44,104.92l-4.76,17.65l-5.73-5.74l6.99-24.65l3.49,12.35v0.01C287.46,104.67,287.46,104.79,287.44,104.92
		z"/>
</g>
</svg>
